PathFileType	3	(X/Y/Z)	D:\Vicon Setup\UG\Test1\New Session\NewSession09.trc
DataRate	CameraRate	NumFrames	NumMarkers	Units	OrigDataRate	OrigDataStartFrame	OrigNumFrames
100.0	100.0	14	27	mm	100.0	228	911	
Frame#	Time	Sternum			LShoulder			RShoulder			LASIS			RASIS			RPSIS			LPSIS			RKneeLateral			RKneeMedial			RFibulaHead			RMidShank			RAnkleLateral			RAnkleMedial			RHeel			RMT5			RMT2			RToe			LKneeLateral			LKneeMedial			LFibulaHead			LMidShank			LAnkleLateral			LAnkleMedial			LHeel			LMT5			LMT2			LToe			
		X1	Y1	Z1	X2	Y2	Z2	X3	Y3	Z3	X4	Y4	Z4	X5	Y5	Z5	X6	Y6	Z6	X7	Y7	Z7	X8	Y8	Z8	X9	Y9	Z9	X10	Y10	Z10	X11	Y11	Z11	X12	Y12	Z12	X13	Y13	Z13	X14	Y14	Z14	X15	Y15	Z15	X16	Y16	Z16	X17	Y17	Z17	X18	Y18	Z18	X19	Y19	Z19	X20	Y20	Z20	X21	Y21	Z21	X22	Y22	Z22	X23	Y23	Z23	X24	Y24	Z24	X25	Y25	Z25	X26	Y26	Z26	X27	Y27	Z27	
228	2.27	256.0011	1386.5619	-1602.0385	70.662872	1439.8097	-1490.5963	442.61856	1414.3641	-1517.9672	134.90947	996.30792	-1601.8477	394.70697	1004.7162	-1597.2283	320.87009	1018.2244	-1423.454	190.58588	1015.7112	-1419.557	445.34174	538.56256	-1479.2874	321.31735	497.89047	-1525.2382	455.97522	458.30588	-1470.8113	403.129	287.37723	-1517.8927	474.73083	92.957779	-1459.8687	404.60938	119.06315	-1522.2416	405.56555	61.399837	-1404.6345	553.72449	32.483631	-1596.8074	489.19525	63.47715	-1616.5997	495.04654	44.276917	-1669.2365	87.245445	522.23303	-1500.3809	216.89282	494.51669	-1524.8226	82.245239	461.56778	-1480.9509	143.60774	300.26822	-1517.4764	78.921196	100.38116	-1448.7974	156.53943	114.08064	-1498.8732	145.43253	63.28511	-1386.288	13.605893	43.862625	-1572.973	72.670441	61.712681	-1600.7305	58.817562	42.270718	-1660.5114
229	2.28	255.9736	1386.6047	-1601.9774	70.633057	1439.8064	-1490.4982	442.62061	1414.3777	-1517.9124	134.89551	996.30518	-1601.7993	394.69196	1004.7115	-1597.1727	320.84723	1018.212	-1423.3977	190.56161	1015.7031	-1419.5166	445.33121	538.55573	-1479.2502	321.30475	497.88919	-1525.2078	455.96451	458.29596	-1470.7765	403.12512	287.37845	-1517.8734	474.73544	92.952118	-1459.8669	404.60913	119.06239	-1522.2374	405.56927	61.387775	-1404.6355	553.72876	32.479626	-1596.8037	489.20752	63.480019	-1616.599	495.04828	44.275322	-1669.2308	87.237366	522.22449	-1500.3545	216.87068	494.52164	-1524.7937	82.234291	461.55887	-1480.9264	143.60107	300.27045	-1517.4569	78.934715	100.3624	-1448.7919	156.54716	114.06751	-1498.8557	145.44766	63.265697	-1386.2893	13.610642	43.860176	-1572.975	72.666046	61.711548	-1600.7273	58.823467	42.260769	-1660.512
230	2.29	255.94624	1386.6564	-1601.9246	70.608818	1439.8062	-1490.3954	442.62485	1414.3927	-1517.859	134.8813	996.30438	-1601.7513	394.67505	1004.71	-1597.1208	320.82227	1018.2036	-1423.3405	190.53946	1015.6981	-1419.4774	445.3194	538.55066	-1479.2164	321.29123	497.88873	-1525.1791	455.95633	458.28693	-1470.7469	403.12091	287.37866	-1517.8551	474.74213	92.948624	-1459.8632	404.60846	119.0612	-1522.233	405.57358	61.377338	-1404.6359	553.73083	32.47604	-1596.7994	489.22018	63.483341	-1616.5984	495.04953	44.274986	-1669.2267	87.225174	522.21973	-1500.3279	216.85634	494.521	-1524.7571	82.220978	461.55371	-1480.9026	143.59357	300.27216	-1517.4377	78.946999	100.34502	-1448.7874	156.55484	114.05622	-1498.8402	145.46161	63.24707	-1386.2898	13.61365	43.856808	-1572.9753	72.661774	61.710518	-1600.7245	58.828518	42.252205	-1660.5153
231	2.3	255.91946	1386.7056	-1601.8707	70.590012	1439.8076	-1490.2891	442.63159	1414.4092	-1517.8064	134.86668	996.30609	-1601.7032	394.65524	1004.7106	-1597.0728	320.79654	1018.1996	-1423.2811	190.51874	1015.6969	-1419.4347	445.30673	538.54706	-1479.1876	321.27774	497.88763	-1525.1523	455.95096	458.27933	-1470.7245	403.11642	287.37704	-1517.8391	474.7507	92.947151	-1459.8593	404.60864	119.05967	-1522.2294	405.57858	61.370659	-1404.6353	553.73083	32.473454	-1596.7958	489.23267	63.491203	-1616.6007	495.05042	44.277122	-1669.2252	87.20932	522.21948	-1500.3013	216.84543	494.51978	-1524.7205	82.205872	461.55292	-1480.8793	143.58592	300.27213	-1517.4198	78.953087	100.33375	-1448.7844	156.56036	114.04922	-1498.8301	145.4711	63.233681	-1386.2891	13.614613	43.853153	-1572.9747	72.65976	61.709328	-1600.7216	58.831875	42.249386	-1660.5286
232	2.31	255.89302	1386.7418	-1601.8087	70.57431	1439.8104	-1490.1815	442.63919	1414.426	-1517.7537	134.85135	996.31024	-1601.655	394.63184	1004.712	-1597.0281	320.77179	1018.1997	-1423.2211	190.49889	1015.7001	-1419.3849	445.29385	538.5451	-1479.1632	321.2666	497.88388	-1525.1266	455.9473	458.27377	-1470.708	403.11124	287.37335	-1517.8259	474.76053	92.947693	-1459.856	404.61011	119.0573	-1522.2261	405.58432	61.368801	-1404.6338	553.72949	32.47263	-1596.7938	489.24286	63.502968	-1616.6058	495.05099	44.282593	-1669.2268	87.190994	522.22308	-1500.2754	216.8342	494.52197	-1524.6904	82.190567	461.55508	-1480.8562	143.57858	300.26974	-1517.4039	78.950958	100.33118	-1448.7834	156.56244	114.04707	-1498.8254	145.4743	63.228264	-1386.2871	13.61385	43.849579	-1572.9738	72.660767	61.708149	-1600.7192	58.832367	42.25293	-1660.5485
233	2.32	255.86626	1386.7632	-1601.7369	70.557663	1439.8145	-1490.0753	442.64478	1414.4423	-1517.698	134.83456	996.31616	-1601.6051	394.60437	1004.7139	-1596.9872	320.74921	1018.2026	-1423.1639	190.48038	1015.7073	-1419.3276	445.28104	538.54486	-1479.1422	321.26215	497.87497	-1525.0974	455.94385	458.27045	-1470.6957	403.10464	287.36801	-1517.8159	474.76987	92.949852	-1459.8528	404.61188	119.05397	-1522.2224	405.58994	61.370697	-1404.6315	553.72748	32.474117	-1596.7939	489.24948	63.517803	-1616.613	495.05045	44.291248	-1669.231	87.171677	522.22784	-1500.2504	216.82008	494.52856	-1524.6686	82.176407	461.55746	-1480.833	143.57112	300.26529	-1517.3895	78.942001	100.33602	-1448.7826	156.56058	114.04871	-1498.8243	145.47139	63.230492	-1386.2837	13.612014	43.846893	-1572.9722	72.663559	61.707245	-1600.7173	58.829338	42.260456	-1660.567
234	2.33	255.83812	1386.7715	-1601.6558	70.535606	1439.8212	-1489.9716	442.64536	1414.4583	-1517.6381	134.81502	996.3233	-1601.552	394.57318	1004.7173	-1596.9492	320.72983	1018.2062	-1423.1105	190.4644	1015.7153	-1419.2653	445.26834	538.54565	-1479.1233	321.26935	497.85773	-1525.0574	455.93945	458.26962	-1470.6859	403.09619	287.36206	-1517.8079	474.77637	92.953072	-1459.8492	404.61292	119.05079	-1522.2168	405.59375	61.374161	-1404.6292	553.72467	32.478104	-1596.7958	489.2533	63.536198	-1616.6212	495.04779	44.302483	-1669.2368	87.152931	522.23083	-1500.2268	216.80191	494.53839	-1524.6531	82.16333	461.55743	-1480.8113	143.56252	300.26001	-1517.3761	78.929367	100.3444	-1448.7804	156.55481	114.05251	-1498.8247	145.46373	63.237988	-1386.2792	13.609303	43.846603	-1572.969	72.666061	61.70694	-1600.7162	58.823559	42.269859	-1660.5817
235	2.34	255.80812	1386.7679	-1601.5634	70.50444	1439.8323	-1489.8694	442.63803	1414.4741	-1517.5742	134.79204	996.33173	-1601.4943	394.53949	1004.7241	-1596.9139	320.71497	1018.2086	-1423.0592	190.45169	1015.7208	-1419.2008	445.25601	538.54785	-1479.1056	321.2897	497.83167	-1525.0018	455.93396	458.27145	-1470.6772	403.08627	287.35706	-1517.8007	474.77872	92.95697	-1459.8447	404.61249	119.04951	-1522.2092	405.59427	61.377659	-1404.6263	553.72064	32.484673	-1596.7985	489.25565	63.556759	-1616.6292	495.04254	44.315418	-1669.2429	87.135788	522.23108	-1500.2057	216.78064	494.55008	-1524.6407	82.150192	461.55441	-1480.7924	143.5522	300.25662	-1517.3638	78.916527	100.35235	-1448.7777	156.54585	114.05759	-1498.8243	145.45291	63.248096	-1386.274	13.60518	43.849766	-1572.9634	72.666641	61.707882	-1600.7159	58.816528	42.280216	-1660.5939
236	2.35	255.77704	1386.7554	-1601.4597	70.463356	1439.849	-1489.7682	442.62222	1414.4905	-1517.5088	134.7662	996.34106	-1601.433	394.50528	1004.7347	-1596.8812	320.70612	1018.2085	-1423.0071	190.44212	1015.7214	-1419.135	445.2446	538.55157	-1479.0891	321.3165	497.80255	-1524.9379	455.92786	458.27576	-1470.6686	403.07559	287.3544	-1517.7937	474.77701	92.961105	-1459.8398	404.61041	119.05134	-1522.2008	405.59177	61.3806	-1404.6237	553.71545	32.493298	-1596.8005	489.25763	63.577652	-1616.6356	495.03601	44.328632	-1669.2476	87.120346	522.22961	-1500.187	216.75919	494.56223	-1524.6288	82.136345	461.54993	-1480.7777	143.54076	300.25745	-1517.3529	78.906158	100.35739	-1448.7754	156.53529	114.06402	-1498.8235	145.44072	63.258553	-1386.2689	13.599152	43.855896	-1572.9563	72.664421	61.710876	-1600.7157	58.809414	42.290779	-1660.6055
237	2.36	255.74731	1386.7404	-1601.3534	70.417816	1439.8683	-1489.6699	442.6012	1414.5067	-1517.4451	134.73901	996.34985	-1601.3706	394.47263	1004.7475	-1596.8503	320.70325	1018.2042	-1422.9528	190.43504	1015.7153	-1419.068	445.2345	538.55603	-1479.074	321.33801	497.77875	-1524.879	455.92148	458.28192	-1470.6583	403.06525	287.35464	-1517.7864	474.77249	92.965096	-1459.8341	404.60733	119.05615	-1522.1931	405.58786	61.382366	-1404.6208	553.70984	32.502331	-1596.8014	489.26059	63.599564	-1616.6425	495.03033	44.340099	-1669.2487	87.106064	522.22827	-1500.1708	216.74068	494.57306	-1524.6125	82.122505	461.54562	-1480.7665	143.52936	300.26282	-1517.3425	78.899216	100.35835	-1448.7747	156.52495	114.07142	-1498.822	145.42917	63.267239	-1386.264	13.591574	43.86306	-1572.9497	72.659363	61.716286	-1600.7148	58.803074	42.299984	-1660.6173
238	2.37	255.72163	1386.7324	-1601.256	70.378654	1439.8832	-1489.5786	442.57986	1414.5233	-1517.3849	134.71211	996.35681	-1601.3098	394.44284	1004.7601	-1596.8204	320.70398	1018.1942	-1422.8977	190.42932	1015.7026	-1419.0007	445.22604	538.55981	-1479.0603	321.34726	497.76334	-1524.8336	455.91483	458.28845	-1470.6451	403.05551	287.35715	-1517.7782	474.76743	92.968513	-1459.8269	404.60394	119.06276	-1522.1879	405.58441	61.381844	-1404.6188	553.70544	32.509907	-1596.8004	489.26492	63.621918	-1616.6512	495.02707	44.34771	-1669.2461	87.092583	522.22797	-1500.1554	216.72688	494.58026	-1524.589	82.109779	461.54163	-1480.756	143.51869	300.27081	-1517.3319	78.895096	100.3551	-1448.7745	156.51599	114.07783	-1498.819	145.4202	63.272217	-1386.2601	13.583591	43.868919	-1572.9442	72.652718	61.723282	-1600.7128	58.798649	42.305656	-1660.6287
239	2.38	255.70103	1386.7365	-1601.1735	70.355736	1439.8883	-1489.4972	442.56149	1414.5415	-1517.3267	134.687	996.36139	-1601.2523	394.41681	1004.7706	-1596.791	320.70593	1018.1779	-1422.8442	190.42368	1015.6848	-1418.9375	445.21927	538.5611	-1479.0479	321.34558	497.75397	-1524.8007	455.90765	458.29398	-1470.6293	403.04709	287.36032	-1517.769	474.76392	92.970207	-1459.8196	404.6011	119.06956	-1522.1868	405.58249	61.378082	-1404.618	553.70374	32.514957	-1596.799	489.2699	63.639736	-1616.6602	495.02637	44.350449	-1669.2412	87.080421	522.22852	-1500.1382	216.71797	494.58289	-1524.5581	82.099075	461.53757	-1480.7427	143.50909	300.27905	-1517.3208	78.892654	100.34887	-1448.7743	156.50909	114.08061	-1498.8146	145.41489	63.272343	-1386.2582	13.57678	43.871822	-1572.9406	72.646721	61.73008	-1600.7102	58.79689	42.305908	-1660.6362
240	2.39	255.68518	1386.7496	-1601.1022	70.353813	1439.882	-1489.4265	442.54721	1414.5603	-1517.2699	134.66478	996.36462	-1601.1984	394.39536	1004.7778	-1596.762	320.70792	1018.1569	-1422.7958	190.4176	1015.6652	-1418.8826	445.21393	538.55939	-1479.0354	321.33774	497.74857	-1524.7755	455.89969	458.29752	-1470.6115	403.04105	287.36273	-1517.7593	474.76337	92.96875	-1459.814	404.59964	119.07475	-1522.1896	405.58234	61.371006	-1404.6191	553.70483	32.516949	-1596.7974	489.27423	63.646255	-1616.6646	495.02798	44.348656	-1669.2366	87.070961	522.22913	-1500.116	216.71321	494.58206	-1524.5222	82.091469	461.53323	-1480.7246	143.50122	300.28577	-1517.3086	78.891602	100.34128	-1448.7739	156.50525	114.07848	-1498.8081	145.41347	63.267796	-1386.2583	13.572951	43.871323	-1572.9396	72.643517	61.734772	-1600.708	58.797192	42.299175	-1660.6345
241	2.4	255.67371	1386.7668	-1601.0352	70.371368	1439.8662	-1489.3647	442.5365	1414.5787	-1517.2126	134.64664	996.36804	-1601.1476	394.37906	1004.7802	-1596.7329	320.71021	1018.1349	-1422.7542	190.41158	1015.6483	-1418.8376	445.20975	538.55493	-1479.0214	321.3277	497.74683	-1524.7543	455.89127	458.29819	-1470.593	403.03848	287.36383	-1517.7485	474.76578	92.96331	-1459.8124	404.60056	119.07683	-1522.1946	405.58414	61.361469	-1404.6213	553.70837	32.515312	-1596.7968	489.2764	63.637829	-1616.6614	495.03146	44.342876	-1669.2335	87.066208	522.22858	-1500.0887	216.7113	494.57956	-1524.4838	82.087906	461.52905	-1480.7003	143.49583	300.2901	-1517.295	78.892601	100.33344	-1448.7736	156.50534	114.07224	-1498.8009	145.41579	63.259991	-1386.2599	13.573355	43.867985	-1572.9418	72.644157	61.735928	-1600.7065	58.797947	42.284164	-1660.6155
